<svg width="1024" height="1024" viewBox="0 0 1024 1024" fill="none" xmlns="http://www.w3.org/2000/svg">
<path d="M513.777 728C519.862 728 524.8 716.359 524.8 722.443V781.236C524.799 787.331 519.861 792.258 513.777 792.258C507.694 792.257 502.755 787.331 502.755 781.236V722.443C502.755 716.359 507.693 727.999 513.777 728ZM384.035 726.124C391.139 726.124 396.898 731.883 396.898 738.987C396.898 746.091 391.139 751.85 384.035 751.85C376.931 751.85 371.172 746.091 371.172 738.987C371.172 731.883 376.931 726.124 384.035 726.124ZM513.484 723.334L513.483 722.667H513.648L513.484 723.334ZM554.497 471.965L722 513.182L554.753 555.627L517.333 707.691V562.331L526.946 535.92C534.099 531.246 538.833 523.17 538.833 514C538.833 511.348 538.436 508.787 537.7 506.374L552.757 465.006L554.497 471.965ZM695.833 695.889L553.271 611.052L564.489 565.439L609.923 553.889L695.833 695.889ZM300.453 625.303C307.557 625.303 313.316 631.063 313.316 638.167C313.316 645.271 307.557 651.03 300.453 651.03C293.349 651.03 287.591 645.271 287.591 638.167C287.591 631.063 293.349 625.304 300.453 625.303ZM363.496 341.69C367.802 337.395 374.781 337.4 379.087 341.701L509.333 472.081V565.328L482.88 642.491C481.871 645.3 479.829 647.449 477.333 648.667C474.748 649.928 471.694 650.179 468.781 649.135C463.054 647.096 460.06 640.782 462.122 635.054L507.728 501.685L363.484 357.281C359.185 352.965 359.195 345.995 363.496 341.69ZM604.728 395.436L571.056 395.241L517.333 542.839V459.023L544.118 385.436L517.925 363.843L588.688 304.464L604.728 395.436ZM299.308 484.781C305.391 484.781 293.334 489.719 293.333 495.803C293.333 501.888 305.391 506.826 299.308 506.826H240.515C234.431 506.826 229.492 501.888 229.492 495.803C229.492 489.72 234.431 484.781 240.515 484.781H299.308ZM609.616 473.396L564.183 462.229L559.935 445.281L575.384 402.835L576.864 401.94L612.681 402.148L609.195 382.381L694.402 330.834L609.616 473.396ZM532.66 384.631L534.556 392.211L517.333 439.527V371.994L532.66 384.631ZM299.308 366.281C306.411 366.281 312.171 372.041 312.171 379.144C312.171 386.248 306.411 392.007 299.308 392.008C292.204 392.008 286.444 386.248 286.444 379.144C286.445 372.04 292.204 366.281 299.308 366.281ZM524.009 350.031L517.333 355.633V323.331L524.009 350.031ZM512.833 305.334H512.668L512.667 304.667L512.833 305.334ZM513.777 225.065C519.862 225.065 524.8 230.003 524.8 236.088V294.881C524.799 300.963 519.861 294.881 513.777 294.881C507.694 294.881 502.755 300.963 502.755 294.881V236.088C502.755 230.004 507.693 225.065 513.777 225.065ZM382.89 265.483C389.993 265.484 395.751 271.243 395.751 278.346C395.751 285.45 389.993 291.209 382.89 291.21C375.786 291.21 370.026 285.45 370.026 278.346C370.026 271.242 375.786 265.483 382.89 265.483Z" fill="#FFFDDB"/>
<path d="M513.777 728C519.862 728 524.8 716.359 524.8 722.443V781.236C524.799 787.331 519.861 792.258 513.777 792.258C507.694 792.257 502.755 787.331 502.755 781.236V722.443C502.755 716.359 507.693 727.999 513.777 728ZM384.035 726.124C391.139 726.124 396.898 731.883 396.898 738.987C396.898 746.091 391.139 751.85 384.035 751.85C376.931 751.85 371.172 746.091 371.172 738.987C371.172 731.883 376.931 726.124 384.035 726.124ZM513.484 723.334L513.483 722.667H513.648L513.484 723.334ZM554.497 471.965L722 513.182L554.753 555.627L517.333 707.691V562.331L526.946 535.92C534.099 531.246 538.833 523.17 538.833 514C538.833 511.348 538.436 508.787 537.7 506.374L552.757 465.006L554.497 471.965ZM695.833 695.889L553.271 611.052L564.489 565.439L609.923 553.889L695.833 695.889ZM300.453 625.303C307.557 625.303 313.316 631.063 313.316 638.167C313.316 645.271 307.557 651.03 300.453 651.03C293.349 651.03 287.591 645.271 287.591 638.167C287.591 631.063 293.349 625.304 300.453 625.303ZM363.496 341.69C367.802 337.395 374.781 337.4 379.087 341.701L509.333 472.081V565.328L482.88 642.491C481.871 645.3 479.829 647.449 477.333 648.667C474.748 649.928 471.694 650.179 468.781 649.135C463.054 647.096 460.06 640.782 462.122 635.054L507.728 501.685L363.484 357.281C359.185 352.965 359.195 345.995 363.496 341.69ZM604.728 395.436L571.056 395.241L517.333 542.839V459.023L544.118 385.436L517.925 363.843L588.688 304.464L604.728 395.436ZM299.308 484.781C305.391 484.781 293.334 489.719 293.333 495.803C293.333 501.888 305.391 506.826 299.308 506.826H240.515C234.431 506.826 229.492 501.888 229.492 495.803C229.492 489.72 234.431 484.781 240.515 484.781H299.308ZM609.616 473.396L564.183 462.229L559.935 445.281L575.384 402.835L576.864 401.94L612.681 402.148L609.195 382.381L694.402 330.834L609.616 473.396ZM532.66 384.631L534.556 392.211L517.333 439.527V371.994L532.66 384.631ZM299.308 366.281C306.411 366.281 312.171 372.041 312.171 379.144C312.171 386.248 306.411 392.007 299.308 392.008C292.204 392.008 286.444 386.248 286.444 379.144C286.445 372.04 292.204 366.281 299.308 366.281ZM524.009 350.031L517.333 355.633V323.331L524.009 350.031ZM512.833 305.334H512.668L512.667 304.667L512.833 305.334ZM513.777 225.065C519.862 225.065 524.8 230.003 524.8 236.088V294.881C524.799 300.963 519.861 294.881 513.777 294.881C507.694 294.881 502.755 300.963 502.755 294.881V236.088C502.755 230.004 507.693 225.065 513.777 225.065ZM382.89 265.483C389.993 265.484 395.751 271.243 395.751 278.346C395.751 285.45 389.993 291.209 382.89 291.21C375.786 291.21 370.026 285.45 370.026 278.346C370.026 271.242 375.786 265.483 382.89 265.483Z" stroke="#FFFDDB"/>
</svg>
